# xmcd CD database file generated by OrangeCD 5.2
#
# Track frame offsets:
#	182
#	18422
#	32322
#	48767
#	60390
#	75817
#	97985
#	113280
#	130135
#	148650
#	163565
#	181112
#	195372
#	210830
#
# Disc length: 3004 seconds
#
# Revision: 4
# Processed by: cddbd v1.5.1PL0 Copyright (c) Steve Scherf et al.
# Submitted via: OrangeCD 5.2
#
DISCID=910bba0e
DTITLE=Various Artist - New Country_October 1994
DYEAR=1994
DGENRE=Country
TTITLE0=Chris LeDoux - Honky Tonk World
TTITLE1=Little Texas - I'd Hold On To Her
TTITLE2=Michelle Wright - One Good Man
TTITLE3=Mark Chesnutt - Goin' Through The Big D
TTITLE4=Marcia Ball - Blue House
TTITLE5=Toby Keith - Who's That Man
TTITLE6=Bryan White - Eugene You Genius
TTITLE7=Terry McBride and The Ride - High Hopes And Empty Pockets
TTITLE8=George Ducas - Lipstick Promises
TTITLE9=John and Adurey Wiggins - Has Anyody Seen Amy
TTITLE10=Robert Earl Keen - Think It Over One Time
TTITLE11=Steve Kolander - Listen To Your Woman
TTITLE12=The Amazing Delores - Dixie Lee
TTITLE13=Greg Holland - Let Me Drive
EXTD=YEAR: 1994
EXTT0=
EXTT1=
EXTT2=
EXTT3=
EXTT4=
EXTT5=
EXTT6=
EXTT7=
EXTT8=
EXTT9=
EXTT10=
EXTT11=
EXTT12=
EXTT13=
PLAYORDER=
